<svg width="357" height="378" viewBox="0 0 357 378" fill="none" xmlns="http://www.w3.org/2000/svg">
<mask id="mask0_9_61" style="mask-type:alpha" maskUnits="userSpaceOnUse" x="16" y="54" width="325" height="324">
<path d="M178.2 378C267.67 378 340.2 305.47 340.2 216C340.2 126.53 267.67 54 178.2 54C88.7299 54 16.2 126.53 16.2 216C16.2 305.47 88.7299 378 178.2 378Z" fill="white"/>
</mask>
<g mask="url(#mask0_9_61)">
<path d="M178.2 378C267.67 378 340.2 305.47 340.2 216C340.2 126.53 267.67 54 178.2 54C88.7299 54 16.2 126.53 16.2 216C16.2 305.47 88.7299 378 178.2 378Z" fill="#7510F7"/>
<path d="M340.868 54H16.2V378H340.868V54Z" fill="#AAAAAA"/>
</g>
<mask id="mask1_9_61" style="mask-type:alpha" maskUnits="userSpaceOnUse" x="0" y="0" width="357" height="378">
<path d="M0 216V0H356.4V216H340.2C340.2 305.47 267.67 378 178.2 378C88.7299 378 16.2 305.47 16.2 216H0Z" fill="white"/>
</mask>
<g mask="url(#mask1_9_61)">
<mask id="mask2_9_61" style="mask-type:alpha" maskUnits="userSpaceOnUse" x="43" y="48" width="271" height="330">
<path d="M178.2 48.6C219.953 48.6 253.8 82.4473 253.8 124.2L253.801 132.524C261.463 133.81 267.3 140.473 267.3 148.5V167.4C267.3 175.571 261.251 182.329 253.387 183.44C250.597 210.177 233.871 232.769 210.601 243.824L210.6 268.65H216C269.682 268.65 313.2 312.168 313.2 365.85V378H43.2V365.85C43.2 312.168 86.7179 268.65 140.4 268.65H145.8L145.8 243.825C122.53 232.77 105.803 210.178 103.012 183.44C95.1491 182.329 89.1 175.571 89.1 167.4V148.5C89.1 140.473 94.9382 133.809 102.6 132.524L102.6 124.2C102.6 82.4473 136.447 48.6 178.2 48.6Z" fill="white"/>
</mask>
<g mask="url(#mask2_9_61)">
<path d="M178.2 48.6C219.953 48.6 253.8 82.4473 253.8 124.2L253.801 132.524C261.463 133.81 267.3 140.473 267.3 148.5V167.4C267.3 175.571 261.251 182.329 253.387 183.44C250.597 210.177 233.871 232.769 210.601 243.824L210.6 268.65H216C269.682 268.65 313.2 312.168 313.2 365.85V378H43.2V365.85C43.2 312.168 86.7179 268.65 140.4 268.65H145.8L145.8 243.825C122.53 232.77 105.803 210.178 103.012 183.44C95.1491 182.329 89.1 175.571 89.1 167.4V148.5C89.1 140.473 94.9382 133.809 102.6 132.524L102.6 124.2C102.6 82.4473 136.447 48.6 178.2 48.6Z" fill="#D0C6AC"/>
<path d="M357.576 48.6H0V379.132H357.576V48.6Z" fill="#C77844"/>
<path fill-rule="evenodd" clip-rule="evenodd" d="M102.6 175.5C102.6 217.253 136.447 251.1 178.2 251.1C219.953 251.1 253.8 217.253 253.8 175.5V186.3C253.8 228.053 219.953 261.9 178.2 261.9C136.447 261.9 102.6 228.053 102.6 186.3V175.5Z" fill="black" fill-opacity="0.1"/>
</g>
<mask id="mask3_9_61" style="mask-type:alpha" maskUnits="userSpaceOnUse" x="43" y="247" width="271" height="131">
<path d="M210.602 247.146C235.037 249.88 253.8 257.396 253.8 276.854L253.791 276.269C288.701 291.015 313.2 325.571 313.2 365.849V378H43.2V365.849C43.2 325.571 67.6991 291.015 102.609 276.269C102.979 257.245 121.61 249.853 145.799 247.146L145.8 272.7C145.8 290.594 160.306 305.1 178.2 305.1C196.094 305.1 210.6 290.594 210.6 272.7L210.602 247.146Z" fill="white"/>
</mask>
<g mask="url(#mask3_9_61)">
<path d="M210.602 247.146C235.037 249.88 253.8 257.396 253.8 276.854L253.791 276.269C288.701 291.015 313.2 325.571 313.2 365.849V378H43.2V365.849C43.2 325.571 67.6991 291.015 102.609 276.269C102.979 257.245 121.61 249.853 145.799 247.146L145.8 272.7C145.8 290.594 160.306 305.1 178.2 305.1C196.094 305.1 210.6 290.594 210.6 272.7L210.602 247.146Z" fill="#B7C1DB"/>
<path d="M357.736 229.5H0V378H357.736V229.5Z" fill="#293347"/>
<path fill-rule="evenodd" clip-rule="evenodd" d="M137.7 312.848L137.7 378H128.25L128.248 308.002C131.224 309.77 134.387 311.392 137.7 312.848ZM228.152 308.002L228.15 362.475C228.15 365.085 226.035 367.2 223.425 367.2C220.815 367.2 218.7 365.085 218.7 362.475L218.702 312.847C222.014 311.391 225.177 309.77 228.152 308.002Z" fill="#F4F4F4"/>
<path fill-rule="evenodd" clip-rule="evenodd" d="M233.6 246.677C253.921 250.52 267.975 258.177 267.975 273.115C267.975 299.727 223.374 321.3 178.2 321.3C133.026 321.3 88.425 299.727 88.425 273.115C88.425 258.177 102.479 250.52 122.8 246.677C110.534 251.198 102.6 258.801 102.6 271.454C102.6 298.983 140.159 321.3 178.2 321.3C216.241 321.3 253.8 298.983 253.8 271.454C253.8 259.066 246.194 251.518 234.362 246.963L233.6 246.677Z" fill="black" fill-opacity="0.16"/>
</g>
<mask id="mask4_9_61" style="mask-type:alpha" maskUnits="userSpaceOnUse" x="152" y="198" width="52" height="27">
<path d="M152.709 201.323C154.137 214.137 165.005 224.1 178.2 224.1C191.436 224.1 202.33 214.075 203.704 201.204C203.814 200.168 202.658 198.45 201.208 198.45C181.101 198.45 165.696 198.45 155.367 198.45C153.909 198.45 152.566 200.041 152.709 201.323Z" fill="white"/>
</mask>
<g mask="url(#mask4_9_61)">
<path d="M152.709 201.323C154.137 214.137 165.005 224.1 178.2 224.1C191.436 224.1 202.33 214.075 203.704 201.204C203.814 200.168 202.658 198.45 201.208 198.45C181.101 198.45 165.696 198.45 155.367 198.45C153.909 198.45 152.566 200.041 152.709 201.323Z" fill="black" fill-opacity="0.7"/>
<path fill-rule="evenodd" clip-rule="evenodd" d="M164.7 183.6H193.05C196.778 183.6 199.8 186.622 199.8 190.35V198.45C199.8 202.178 196.778 205.2 193.05 205.2H164.7C160.972 205.2 157.95 202.178 157.95 198.45V190.35C157.95 186.622 160.972 183.6 164.7 183.6Z" fill="white"/>
<path d="M171.45 243C179.651 243 186.3 236.351 186.3 228.15C186.3 219.949 179.651 213.3 171.45 213.3C163.249 213.3 156.6 219.949 156.6 228.15C156.6 236.351 163.249 243 171.45 243Z" fill="#FF4F6D"/>
<path d="M184.95 243C193.151 243 199.8 236.351 199.8 228.15C199.8 219.949 193.151 213.3 184.95 213.3C176.749 213.3 170.1 219.949 170.1 228.15C170.1 236.351 176.749 243 184.95 243Z" fill="#FF4F6D"/>
</g>
<path fill-rule="evenodd" clip-rule="evenodd" d="M162 175.5C162 181.465 169.253 186.3 178.2 186.3C187.147 186.3 194.4 181.465 194.4 175.5" fill="black" fill-opacity="0.16"/>
<path fill-rule="evenodd" clip-rule="evenodd" d="M124.416 151.804C126.909 146.675 132.522 143.1 139.047 143.1C145.548 143.1 151.145 146.65 153.651 151.75C154.395 153.264 153.336 154.504 152.267 153.585C148.958 150.741 144.259 148.964 139.047 148.964C133.997 148.964 129.43 150.631 126.141 153.322C124.938 154.305 123.687 153.304 124.416 151.804Z" fill="black"/>
<path fill-rule="evenodd" clip-rule="evenodd" d="M202.716 151.804C205.209 146.675 210.822 143.1 217.347 143.1C223.848 143.1 229.445 146.65 231.951 151.75C232.695 153.264 231.636 154.504 230.567 153.585C227.258 150.741 222.559 148.964 217.347 148.964C212.297 148.964 207.73 150.631 204.441 153.322C203.238 154.305 201.987 153.304 202.716 151.804Z" fill="black"/>
<path fill-rule="evenodd" clip-rule="evenodd" d="M138.439 119C130.599 119.362 117.926 125.059 118.252 132.964C118.263 133.223 118.643 133.337 118.829 133.138C122.548 129.143 148.954 125.106 158.255 127.245C159.106 127.441 159.753 126.601 159.214 125.995C154.594 120.8 145.462 118.669 138.439 119Z" fill="black"/>
<path fill-rule="evenodd" clip-rule="evenodd" d="M219.311 119C227.15 119.362 239.824 125.059 239.498 132.964C239.487 133.223 239.107 133.337 238.921 133.138C235.202 129.143 208.796 125.106 199.495 127.245C198.643 127.441 197.997 126.601 198.536 125.995C203.156 120.8 212.288 118.669 219.311 119Z" fill="black"/>
<mask id="mask5_9_61" style="mask-type:alpha" maskUnits="userSpaceOnUse" x="0" y="0" width="357" height="378">
<path d="M356.4 0H0V378H356.4V0Z" fill="white"/>
</mask>
<g mask="url(#mask5_9_61)">
<mask id="mask6_9_61" style="mask-type:alpha" maskUnits="userSpaceOnUse" x="98" y="22" width="159" height="112">
<path d="M241.702 53.8926C237.977 50.0856 233.651 46.8542 229.444 43.6139C228.515 42.8996 227.572 42.2025 226.664 41.461C226.458 41.2925 224.344 39.7788 224.091 39.2216C223.483 37.8814 223.835 38.925 223.919 37.3256C224.025 35.3032 228.149 29.5911 225.072 28.2812C223.718 27.705 221.304 29.2382 220.005 29.7446C217.465 30.7357 214.894 31.5809 212.268 32.3097C213.526 29.8031 215.925 24.7853 211.417 26.1283C207.904 27.1746 204.632 29.8647 201.102 31.1302C202.27 29.2161 206.94 23.2847 202.72 22.9532C201.407 22.8499 197.586 25.313 196.172 25.8384C191.938 27.4124 187.612 28.4297 183.167 29.231C168.049 31.9555 150.371 31.1787 136.385 38.0612C125.602 43.367 114.954 51.5998 108.725 62.0832C102.722 72.188 100.476 83.2466 99.2194 94.8258C98.2974 103.323 98.2224 112.107 98.6536 120.636C98.7945 123.43 99.1088 136.311 103.168 132.41C105.191 130.466 105.176 122.618 105.685 119.962C106.699 114.676 107.675 109.367 109.365 104.251C112.343 95.2343 115.857 91.0301 123.276 84.8202C128.038 80.8356 131.382 75.4501 135.938 71.4302C137.985 69.6247 136.423 69.8127 139.714 70.0496C141.925 70.2086 144.145 70.2693 146.361 70.3272C151.485 70.4604 156.618 70.4264 161.744 70.4446C172.067 70.4817 182.342 70.6275 192.655 70.0872C197.238 69.8471 201.834 69.7171 206.405 69.2932C208.959 69.0563 213.49 67.4198 215.591 68.6704C217.515 69.8145 219.513 73.5504 220.894 75.0805C224.157 78.6963 228.048 81.4579 231.864 84.4229C239.821 90.6052 243.839 92.97 246.255 102.631C248.663 112.257 247.988 121.187 250.968 130.659C251.492 132.325 252.879 135.196 254.589 132.623C254.906 132.145 254.824 129.518 254.824 128.006C254.824 121.904 256.369 117.326 256.35 111.185C256.274 92.5117 255.67 68.1626 241.702 53.8926Z" fill="white"/>
</mask>
<g mask="url(#mask6_9_61)">
<path d="M241.702 53.8926C237.977 50.0856 233.651 46.8542 229.444 43.6139C228.515 42.8996 227.572 42.2025 226.664 41.461C226.458 41.2925 224.344 39.7788 224.091 39.2216C223.483 37.8814 223.835 38.925 223.919 37.3256C224.025 35.3032 228.149 29.5911 225.072 28.2812C223.718 27.705 221.304 29.2382 220.005 29.7446C217.465 30.7357 214.894 31.5809 212.268 32.3097C213.526 29.8031 215.925 24.7853 211.417 26.1283C207.904 27.1746 204.632 29.8647 201.102 31.1302C202.27 29.2161 206.94 23.2847 202.72 22.9532C201.407 22.8499 197.586 25.313 196.172 25.8384C191.938 27.4124 187.612 28.4297 183.167 29.231C168.049 31.9555 150.371 31.1787 136.385 38.0612C125.602 43.367 114.954 51.5998 108.725 62.0832C102.722 72.188 100.476 83.2466 99.2194 94.8258C98.2974 103.323 98.2224 112.107 98.6536 120.636C98.7945 123.43 99.1088 136.311 103.168 132.41C105.191 130.466 105.176 122.618 105.685 119.962C106.699 114.676 107.675 109.367 109.365 104.251C112.343 95.2343 115.857 91.0301 123.276 84.8202C128.038 80.8356 131.382 75.4501 135.938 71.4302C137.985 69.6247 136.423 69.8127 139.714 70.0496C141.925 70.2086 144.145 70.2693 146.361 70.3272C151.485 70.4604 156.618 70.4264 161.744 70.4446C172.067 70.4817 182.342 70.6275 192.655 70.0872C197.238 69.8471 201.834 69.7171 206.405 69.2932C208.959 69.0563 213.49 67.4198 215.591 68.6704C217.515 69.8145 219.513 73.5504 220.894 75.0805C224.157 78.6963 228.048 81.4579 231.864 84.4229C239.821 90.6052 243.839 92.97 246.255 102.631C248.663 112.257 247.988 121.187 250.968 130.659C251.492 132.325 252.879 135.196 254.589 132.623C254.906 132.145 254.824 129.518 254.824 128.006C254.824 121.904 256.369 117.326 256.35 111.185C256.274 92.5117 255.67 68.1626 241.702 53.8926Z" fill="#1F3140"/>
<path d="M358.51 0H-0.149994V378.61H358.51V0Z" fill="black"/>
</g>
</g>
<path d="M136.326 104.475C124.098 104.475 113.319 110.779 107.052 120.302H92.1829C90.1493 120.302 88.5 121.952 88.5 123.985C88.5 126.019 90.1493 127.668 92.1829 127.668H103.362C102.031 131.366 101.301 135.349 101.301 139.5C101.301 158.813 117.013 174.526 136.326 174.526C155.64 174.526 171.352 158.813 171.352 139.5C171.352 120.187 155.64 104.475 136.326 104.475ZM136.326 167.16C121.075 167.16 108.666 154.752 108.666 139.5C108.666 124.248 121.075 111.84 136.326 111.84C151.578 111.84 163.986 124.248 163.986 139.5C163.986 154.752 151.578 167.16 136.326 167.16Z" fill="black"/>
<path d="M264.817 120.302H248.213C246.436 117.593 244.284 115.117 241.793 112.969C235.443 107.491 227.322 104.475 218.926 104.475C206.385 104.475 195.367 111.105 189.179 121.039C186.493 117.605 182.315 115.391 177.627 115.391C175.17 115.391 172.738 116.012 170.594 117.185C168.81 118.161 168.155 120.399 169.131 122.184C170.107 123.968 172.345 124.622 174.13 123.647C175.209 123.056 176.385 122.757 177.627 122.757C181.651 122.757 184.925 126.032 184.925 130.056C184.925 130.306 184.951 130.551 184.998 130.788C184.282 133.575 183.9 136.494 183.9 139.501C183.9 158.814 199.613 174.527 218.926 174.527C233.426 174.527 246.601 165.413 251.713 151.849C252.43 149.945 251.468 147.821 249.564 147.105C247.661 146.386 245.536 147.348 244.819 149.252C240.784 159.964 230.378 167.162 218.926 167.162C203.675 167.162 191.266 154.753 191.266 139.502C191.266 124.25 203.675 111.842 218.926 111.842C232.631 111.842 244.122 121.65 246.248 135.164C246.565 137.173 248.448 138.545 250.459 138.229C252.468 137.913 253.841 136.028 253.525 134.019C253.183 131.845 252.63 129.721 251.892 127.669H264.818C266.851 127.669 268.501 126.02 268.501 123.986C268.501 121.953 266.851 120.302 264.817 120.302Z" fill="black"/>
</g>
</svg>
