<svg width="340" height="296" viewBox="0 0 340 296" fill="none" xmlns="http://www.w3.org/2000/svg">
<path d="M334.253 53.6025H115.277V80.4013H316.87V223.072H115.277V258.333H151.905L126.102 282.723C125.25 283.528 124.769 284.64 124.769 285.803V291.273C124.769 293.635 126.72 295.55 129.128 295.55H261.096C263.503 295.55 265.455 293.635 265.455 291.273V285.803C265.455 284.641 264.972 283.529 264.12 282.723L238.317 258.333H334.253C337.426 258.333 340 255.809 340 252.691V59.2408C340 56.1274 337.426 53.6025 334.253 53.6025ZM195.11 235.489C198.604 235.489 201.434 238.266 201.434 241.693C201.434 245.12 198.604 247.898 195.11 247.898C191.62 247.898 188.79 245.12 188.79 241.693C188.79 238.266 191.62 235.489 195.11 235.489Z" fill="#AAAAAA"/>
<path d="M88.5805 0H7.04062C3.15154 0 0 3.09197 0 6.90753V288.357C0 292.172 3.15154 295.264 7.04062 295.264H88.5805C92.4695 295.264 95.6211 292.172 95.6211 288.357V6.90753C95.6219 3.09197 92.4695 0 88.5805 0ZM40.249 35.0876C40.249 34.4846 40.7468 33.9954 41.3623 33.9954H54.2605C54.8751 33.9954 55.3738 34.4846 55.3738 35.0876V144.074C55.3738 144.677 54.8751 145.167 54.2605 145.167H41.3623C40.7468 145.167 40.249 144.677 40.249 144.074V35.0876ZM54.434 201.358C54.434 204.946 51.4699 207.856 47.8101 207.856C44.1521 207.856 41.1862 204.946 41.1862 201.358C41.1862 197.769 44.1512 194.859 47.8101 194.859C51.4699 194.859 54.434 197.768 54.434 201.358ZM47.811 253.225C39.2003 253.225 32.2189 246.376 32.2189 237.927C32.2189 229.479 39.2003 222.63 47.811 222.63C56.4217 222.63 63.403 229.479 63.403 237.927C63.403 246.376 56.4217 253.225 47.811 253.225Z" fill="#AAAAAA"/>
</svg>
